%TF.GenerationSoftware,KiCad,Pcbnew,7.0.10-7.0.10~ubuntu20.04.1*%
%TF.CreationDate,2024-07-27T03:31:41+03:00*%
%TF.ProjectId,Prog,50726f67-2e6b-4696-9361-645f70636258,rev?*%
%TF.SameCoordinates,PX5f5e100PY5f5e100*%
%TF.FileFunction,Profile,NP*%
%FSLAX46Y46*%
G04 Gerber Fmt 4.6, Leading zero omitted, Abs format (unit mm)*
G04 Created by KiCad (PCBNEW 7.0.10-7.0.10~ubuntu20.04.1) date 2024-07-27 03:31:41*
%MOMM*%
%LPD*%
G01*
G04 APERTURE LIST*
%TA.AperFunction,Profile*%
%ADD10C,0.100000*%
%TD*%
G04 APERTURE END LIST*
D10*
X0Y-16250000D02*
X-15155445Y-16250000D01*
X0Y-40000000D02*
X10150000Y-40000000D01*
X0Y16250000D02*
X15155445Y16250000D01*
X0Y20250000D02*
X15155445Y20250000D01*
X-15155445Y-14750000D02*
G75*
G03*
X-15155445Y-16250000I45J-750000D01*
G01*
X17537097Y10125048D02*
G75*
G03*
X12773876Y7375000I-2381597J-1375048D01*
G01*
X17537014Y-10125000D02*
X9959292Y-23250000D01*
X14072913Y-8125000D02*
X6495191Y-21250000D01*
X-12773875Y-7375000D02*
X-20351597Y5750000D01*
X15155445Y14750000D02*
G75*
G03*
X15155445Y16250000I-45J750000D01*
G01*
X12985718Y-27043885D02*
G75*
G03*
X10150000Y-31551189I2164282J-4507315D01*
G01*
X-23815672Y3750015D02*
G75*
G03*
X-25114737Y3000000I-649528J-375015D01*
G01*
X16237996Y-9375011D02*
G75*
G03*
X14072913Y-8125000I-1082596J624911D01*
G01*
X14072913Y8125000D02*
X21650635Y-5000000D01*
X-16238059Y-9375048D02*
G75*
G03*
X-14072914Y-8125000I1082559J625048D01*
G01*
X0Y-18750000D02*
X-15155445Y-18750000D01*
X-17537097Y-10125048D02*
G75*
G03*
X-12773876Y-7375000I2381597J1375048D01*
G01*
X15155445Y18750000D02*
G75*
G03*
X15155445Y20250000I-45J750000D01*
G01*
X0Y18750000D02*
G75*
G03*
X0Y16250000I0J-1250000D01*
G01*
X0Y-14750000D02*
X-15155445Y-14750000D01*
X16237976Y9375000D02*
X23815699Y-3750000D01*
X-17537014Y-10125000D02*
X-25114737Y3000000D01*
X-20351574Y5750013D02*
G75*
G03*
X-21650634Y5000000I-649526J-375013D01*
G01*
X-10149990Y-31551189D02*
G75*
G03*
X-12985714Y-27043876I-5000010J-11D01*
G01*
X0Y-20250000D02*
G75*
G03*
X0Y-14750000I0J2750000D01*
G01*
X17537014Y10125000D02*
X25114737Y-3000000D01*
X-10150000Y-40000000D02*
X0Y-40000000D01*
X8050000Y0D02*
G75*
G03*
X-8050000Y0I-8050000J0D01*
G01*
X-8050000Y0D02*
G75*
G03*
X8050000Y0I8050000J0D01*
G01*
X0Y20250000D02*
G75*
G03*
X0Y14750000I0J-2750000D01*
G01*
X-14072913Y-8125000D02*
X-21650635Y5000000D01*
X5196195Y-20500025D02*
G75*
G03*
X6495190Y-21250000I649505J-374975D01*
G01*
X23815672Y-3750015D02*
G75*
G03*
X25114737Y-3000000I649528J375015D01*
G01*
X10150000Y-40000000D02*
X10150000Y-31551189D01*
X8660295Y-22500024D02*
G75*
G03*
X9959292Y-23250000I649505J-374976D01*
G01*
X20351574Y-5750013D02*
G75*
G03*
X21650634Y-5000000I649526J375013D01*
G01*
X12773875Y7375000D02*
X20351597Y-5750000D01*
X16238059Y9375048D02*
G75*
G03*
X14072914Y8125000I-1082559J-625048D01*
G01*
X12773875Y-7375000D02*
X5196152Y-20500000D01*
X16237976Y-9375000D02*
X8660254Y-22500000D01*
X-16237976Y-9375000D02*
X-23815699Y3750000D01*
X0Y14750000D02*
X15155445Y14750000D01*
X0Y-20250000D02*
X-15155445Y-20250000D01*
X-15155445Y-18750000D02*
G75*
G03*
X-15155445Y-20250000I45J-750000D01*
G01*
X-10150000Y-31551189D02*
X-10150000Y-40000000D01*
X12985714Y-27043875D02*
G75*
G03*
X-12985714Y-27043875I-12985714J27043875D01*
G01*
X17537034Y-10125011D02*
G75*
G03*
X12773875Y-7375000I-2381634J1374911D01*
G01*
X0Y18750000D02*
X15155445Y18750000D01*
X0Y-18750000D02*
G75*
G03*
X0Y-16250000I0J1250000D01*
G01*
M02*
