%TF.GenerationSoftware,KiCad,Pcbnew,7.0.10-7.0.10~ubuntu20.04.1*%
%TF.CreationDate,2024-03-10T21:21:06+02:00*%
%TF.ProjectId,ReceiverSampleBoard,52656365-6976-4657-9253-616d706c6542,rev?*%
%TF.SameCoordinates,Original*%
%TF.FileFunction,Copper,L1,Top*%
%TF.FilePolarity,Positive*%
%FSLAX46Y46*%
G04 Gerber Fmt 4.6, Leading zero omitted, Abs format (unit mm)*
G04 Created by KiCad (PCBNEW 7.0.10-7.0.10~ubuntu20.04.1) date 2024-03-10 21:21:06*
%MOMM*%
%LPD*%
G01*
G04 APERTURE LIST*
G04 Aperture macros list*
%AMRoundRect*
0 Rectangle with rounded corners*
0 $1 Rounding radius*
0 $2 $3 $4 $5 $6 $7 $8 $9 X,Y pos of 4 corners*
0 Add a 4 corners polygon primitive as box body*
4,1,4,$2,$3,$4,$5,$6,$7,$8,$9,$2,$3,0*
0 Add four circle primitives for the rounded corners*
1,1,$1+$1,$2,$3*
1,1,$1+$1,$4,$5*
1,1,$1+$1,$6,$7*
1,1,$1+$1,$8,$9*
0 Add four rect primitives between the rounded corners*
20,1,$1+$1,$2,$3,$4,$5,0*
20,1,$1+$1,$4,$5,$6,$7,0*
20,1,$1+$1,$6,$7,$8,$9,0*
20,1,$1+$1,$8,$9,$2,$3,0*%
%AMRotRect*
0 Rectangle, with rotation*
0 The origin of the aperture is its center*
0 $1 length*
0 $2 width*
0 $3 Rotation angle, in degrees counterclockwise*
0 Add horizontal line*
21,1,$1,$2,0,0,$3*%
G04 Aperture macros list end*
%TA.AperFunction,SMDPad,CuDef*%
%ADD10RotRect,6.600000X2.850000X120.000000*%
%TD*%
%TA.AperFunction,SMDPad,CuDef*%
%ADD11R,6.600000X2.850000*%
%TD*%
%TA.AperFunction,SMDPad,CuDef*%
%ADD12RoundRect,0.150000X0.150000X-0.587500X0.150000X0.587500X-0.150000X0.587500X-0.150000X-0.587500X0*%
%TD*%
%TA.AperFunction,SMDPad,CuDef*%
%ADD13RotRect,6.600000X2.850000X240.000000*%
%TD*%
%TA.AperFunction,ComponentPad*%
%ADD14R,1.700000X1.700000*%
%TD*%
%TA.AperFunction,ComponentPad*%
%ADD15O,1.700000X1.700000*%
%TD*%
%TA.AperFunction,SMDPad,CuDef*%
%ADD16RoundRect,0.150000X-0.587500X-0.150000X0.587500X-0.150000X0.587500X0.150000X-0.587500X0.150000X0*%
%TD*%
%TA.AperFunction,SMDPad,CuDef*%
%ADD17RotRect,6.600000X2.850000X300.000000*%
%TD*%
%TA.AperFunction,SMDPad,CuDef*%
%ADD18RotRect,6.600000X2.850000X60.000000*%
%TD*%
%TA.AperFunction,SMDPad,CuDef*%
%ADD19RoundRect,0.150000X0.587500X0.150000X-0.587500X0.150000X-0.587500X-0.150000X0.587500X-0.150000X0*%
%TD*%
%TA.AperFunction,Conductor*%
%ADD20C,0.250000*%
%TD*%
G04 APERTURE END LIST*
D10*
%TO.P,L1,1,1*%
%TO.N,Net-(Q1-G)*%
X96192466Y-87764523D03*
%TO.P,L1,2,2*%
%TO.N,Net-(L1-Pad2)*%
X91299422Y-90589523D03*
%TD*%
D11*
%TO.P,L2,1,1*%
%TO.N,Net-(L1-Pad2)*%
X87491889Y-97179682D03*
%TO.P,L2,2,2*%
%TO.N,Net-(L2-Pad2)*%
X87491889Y-102829682D03*
%TD*%
D12*
%TO.P,D1,1*%
%TO.N,Net-(Q1-G)*%
X99050000Y-114187500D03*
%TO.P,D1,2*%
%TO.N,Net-(Q1-D)*%
X100950000Y-114187500D03*
%TO.P,D1,3*%
%TO.N,Net-(J1-Pin_1)*%
X100000000Y-112312500D03*
%TD*%
D11*
%TO.P,L5,1,1*%
%TO.N,Net-(L4-Pad2)*%
X112500000Y-102825000D03*
%TO.P,L5,2,2*%
%TO.N,Net-(L5-Pad2)*%
X112500000Y-97175000D03*
%TD*%
D13*
%TO.P,L3,1,1*%
%TO.N,Net-(L2-Pad2)*%
X91295367Y-109417500D03*
%TO.P,L3,2,2*%
%TO.N,Net-(L3-Pad2)*%
X96188411Y-112242500D03*
%TD*%
D14*
%TO.P,J1,1,Pin_1*%
%TO.N,Net-(J1-Pin_1)*%
X101270000Y-118000000D03*
D15*
%TO.P,J1,2,Pin_2*%
%TO.N,GND*%
X98730000Y-118000000D03*
%TD*%
D16*
%TO.P,Q1,1,G*%
%TO.N,Net-(Q1-G)*%
X101312500Y-81050000D03*
%TO.P,Q1,2,S*%
%TO.N,GND*%
X101312500Y-82950000D03*
%TO.P,Q1,3,D*%
%TO.N,Net-(Q1-D)*%
X103187500Y-82000000D03*
%TD*%
D17*
%TO.P,L4,1,1*%
%TO.N,Net-(L3-Pad2)*%
X103799422Y-112240158D03*
%TO.P,L4,2,2*%
%TO.N,Net-(L4-Pad2)*%
X108692466Y-109415158D03*
%TD*%
D18*
%TO.P,L6,1,1*%
%TO.N,Net-(L5-Pad2)*%
X108696522Y-90587182D03*
%TO.P,L6,2,2*%
%TO.N,Net-(Q1-D)*%
X103803478Y-87762182D03*
%TD*%
D19*
%TO.P,Q2,1,G*%
%TO.N,Net-(Q1-D)*%
X98687500Y-82950000D03*
%TO.P,Q2,2,S*%
%TO.N,GND*%
X98687500Y-81050000D03*
%TO.P,Q2,3,D*%
%TO.N,Net-(Q1-G)*%
X96812500Y-82000000D03*
%TD*%
D20*
%TO.N,Net-(J1-Pin_1)*%
X101270000Y-118000000D02*
X101250000Y-118000000D01*
X100000000Y-116750000D02*
X100000000Y-112312500D01*
X101250000Y-118000000D02*
X100000000Y-116750000D01*
%TO.N,GND*%
X86156854Y-86343146D02*
X86332314Y-86167686D01*
X100000000Y-119500000D02*
X100000000Y-119000000D01*
X99000000Y-118000000D02*
X98730000Y-118000000D01*
X105651367Y-82950000D02*
X101312500Y-82950000D01*
X100000000Y-119000000D02*
X99000000Y-118000000D01*
X100000000Y-119500000D02*
G75*
G03*
X119500000Y-100000000I0J19500000D01*
G01*
X119500002Y-100000000D02*
G75*
G03*
X113843146Y-86343146I-19313702J0D01*
G01*
X98687500Y-81050009D02*
G75*
G03*
X86332314Y-86167686I0J-17472891D01*
G01*
X80500000Y-100000000D02*
G75*
G03*
X100000000Y-119500000I19500000J0D01*
G01*
X86156856Y-86343148D02*
G75*
G03*
X80500000Y-100000000I13656844J-13656852D01*
G01*
X113843157Y-86343135D02*
G75*
G03*
X105651367Y-82950000I-8191757J-8191765D01*
G01*
%TO.N,Net-(Q1-D)*%
X97500000Y-84000000D02*
X104250000Y-84000000D01*
X100950000Y-114950000D02*
X100950000Y-114187500D01*
X97250000Y-83250000D02*
X97250000Y-83750000D01*
X116500000Y-96250000D02*
X116500000Y-102500000D01*
X100500000Y-82000000D02*
X99550000Y-82950000D01*
X104250000Y-87315660D02*
X103803478Y-87762182D01*
X99550000Y-82950000D02*
X98687500Y-82950000D01*
X104250000Y-84000000D02*
X104250000Y-87315660D01*
X97550000Y-82950000D02*
X97250000Y-83250000D01*
X103187500Y-82000000D02*
X100500000Y-82000000D01*
X97250000Y-83750000D02*
X97500000Y-84000000D01*
X98687500Y-82950000D02*
X97550000Y-82950000D01*
X100950000Y-114950000D02*
G75*
G03*
X102500000Y-116500000I1550000J0D01*
G01*
X102500000Y-116500000D02*
G75*
G03*
X116500000Y-102500000I0J14000000D01*
G01*
X116500000Y-96250000D02*
G75*
G03*
X104250000Y-84000000I-12250000J0D01*
G01*
%TO.N,Net-(Q1-G)*%
X95750000Y-82500000D02*
X96250000Y-82000000D01*
X99050000Y-114950000D02*
X99050000Y-114187500D01*
X99500000Y-82000000D02*
X96812500Y-82000000D01*
X96192466Y-87764523D02*
X95750000Y-87322057D01*
X101312500Y-81050000D02*
X100450000Y-81050000D01*
X95750000Y-83500000D02*
X95750000Y-82500000D01*
X83500000Y-95750022D02*
X83500000Y-102500000D01*
X100450000Y-81050000D02*
X99500000Y-82000000D01*
X95750000Y-87322057D02*
X95750000Y-83500000D01*
X96250000Y-82000000D02*
X96812500Y-82000000D01*
X95750000Y-84000000D02*
G75*
G03*
X83500000Y-96250022I0J-12250000D01*
G01*
X83500000Y-102500000D02*
G75*
G03*
X97500000Y-116500000I14000000J0D01*
G01*
X97500000Y-116500000D02*
G75*
G03*
X99050000Y-114950000I0J1550000D01*
G01*
%TO.N,Net-(L1-Pad2)*%
X91299422Y-90589523D02*
X89459503Y-92429442D01*
X89459521Y-92429460D02*
G75*
G03*
X87491889Y-97179682I4750179J-4750240D01*
G01*
%TO.N,Net-(L2-Pad2)*%
X91295367Y-109417500D02*
X89460715Y-107582848D01*
X87491908Y-102829682D02*
G75*
G03*
X89460715Y-107582848I6721992J-18D01*
G01*
%TO.N,Net-(L3-Pad2)*%
X98430911Y-110000000D02*
X101559264Y-110000000D01*
X96188411Y-112242500D02*
X98430911Y-110000000D01*
X101559264Y-110000000D02*
X103799422Y-112240158D01*
%TO.N,Net-(L4-Pad2)*%
X108692466Y-109415158D02*
X110532388Y-107575236D01*
X110532378Y-107575226D02*
G75*
G03*
X112500000Y-102825000I-4750178J4750226D01*
G01*
%TO.N,Net-(L5-Pad2)*%
X108696522Y-90587182D02*
X110531174Y-92421834D01*
X112499997Y-97175000D02*
G75*
G03*
X110531174Y-92421834I-6721997J0D01*
G01*
%TD*%
M02*
