%TF.GenerationSoftware,KiCad,Pcbnew,7.0.10-7.0.10~ubuntu20.04.1*%
%TF.CreationDate,2024-07-01T02:38:12+03:00*%
%TF.ProjectId,Tacho,54616368-6f2e-46b6-9963-61645f706362,rev?*%
%TF.SameCoordinates,Original*%
%TF.FileFunction,Profile,NP*%
%FSLAX46Y46*%
G04 Gerber Fmt 4.6, Leading zero omitted, Abs format (unit mm)*
G04 Created by KiCad (PCBNEW 7.0.10-7.0.10~ubuntu20.04.1) date 2024-07-01 02:38:12*
%MOMM*%
%LPD*%
G01*
G04 APERTURE LIST*
%TA.AperFunction,Profile*%
%ADD10C,0.100000*%
%TD*%
G04 APERTURE END LIST*
D10*
X97000000Y-81000000D02*
G75*
G03*
X97500000Y-80500000I0J500000D01*
G01*
X97000000Y-81000000D02*
X93750488Y-81001484D01*
X106249512Y-81001484D02*
X103000000Y-81000000D01*
X102500000Y-80500000D02*
G75*
G03*
X103000000Y-81000000I500000J0D01*
G01*
X97500000Y-119499999D02*
G75*
G03*
X97000000Y-119000000I-500000J-1D01*
G01*
X93750488Y-118998515D02*
X97000000Y-119000000D01*
X106249512Y-118998516D02*
G75*
G03*
X120000000Y-100000000I-6249512J18998516D01*
G01*
X103000000Y-119000000D02*
X106249512Y-118998515D01*
X102500001Y-133000000D02*
X97499999Y-133000000D01*
X102500001Y-119500000D02*
X102500001Y-133000000D01*
X80000001Y-100000000D02*
G75*
G03*
X93750488Y-118998515I19999999J0D01*
G01*
X103000000Y-119000001D02*
G75*
G03*
X102500001Y-119500000I1J-500000D01*
G01*
X97499999Y-133000000D02*
X97500000Y-119499999D01*
X120000000Y-100000000D02*
G75*
G03*
X106249512Y-81001484I-20000000J0D01*
G01*
X93750488Y-81001484D02*
G75*
G03*
X80000000Y-100000000I6249512J-18998516D01*
G01*
X102500000Y-70250000D02*
X102500000Y-80500000D01*
X97500000Y-80500000D02*
X97500000Y-70250000D01*
X97500000Y-70250000D02*
X102500000Y-70250000D01*
X111000000Y-100000000D02*
G75*
G03*
X89000000Y-100000000I-11000000J0D01*
G01*
X89000000Y-100000000D02*
G75*
G03*
X111000000Y-100000000I11000000J0D01*
G01*
M02*
