%TF.GenerationSoftware,KiCad,Pcbnew,7.0.10-7.0.10~ubuntu20.04.1*%
%TF.CreationDate,2024-07-01T02:38:11+03:00*%
%TF.ProjectId,Tacho,54616368-6f2e-46b6-9963-61645f706362,rev?*%
%TF.SameCoordinates,Original*%
%TF.FileFunction,Legend,Top*%
%TF.FilePolarity,Positive*%
%FSLAX46Y46*%
G04 Gerber Fmt 4.6, Leading zero omitted, Abs format (unit mm)*
G04 Created by KiCad (PCBNEW 7.0.10-7.0.10~ubuntu20.04.1) date 2024-07-01 02:38:11*
%MOMM*%
%LPD*%
G01*
G04 APERTURE LIST*
%ADD10C,0.150000*%
%ADD11C,0.100000*%
%ADD12C,0.120000*%
G04 APERTURE END LIST*
D10*
X99261905Y-78954819D02*
X99261905Y-77954819D01*
X99261905Y-77954819D02*
X99500000Y-77954819D01*
X99500000Y-77954819D02*
X99642857Y-78002438D01*
X99642857Y-78002438D02*
X99738095Y-78097676D01*
X99738095Y-78097676D02*
X99785714Y-78192914D01*
X99785714Y-78192914D02*
X99833333Y-78383390D01*
X99833333Y-78383390D02*
X99833333Y-78526247D01*
X99833333Y-78526247D02*
X99785714Y-78716723D01*
X99785714Y-78716723D02*
X99738095Y-78811961D01*
X99738095Y-78811961D02*
X99642857Y-78907200D01*
X99642857Y-78907200D02*
X99500000Y-78954819D01*
X99500000Y-78954819D02*
X99261905Y-78954819D01*
X100166667Y-77954819D02*
X100785714Y-77954819D01*
X100785714Y-77954819D02*
X100452381Y-78335771D01*
X100452381Y-78335771D02*
X100595238Y-78335771D01*
X100595238Y-78335771D02*
X100690476Y-78383390D01*
X100690476Y-78383390D02*
X100738095Y-78431009D01*
X100738095Y-78431009D02*
X100785714Y-78526247D01*
X100785714Y-78526247D02*
X100785714Y-78764342D01*
X100785714Y-78764342D02*
X100738095Y-78859580D01*
X100738095Y-78859580D02*
X100690476Y-78907200D01*
X100690476Y-78907200D02*
X100595238Y-78954819D01*
X100595238Y-78954819D02*
X100309524Y-78954819D01*
X100309524Y-78954819D02*
X100214286Y-78907200D01*
X100214286Y-78907200D02*
X100166667Y-78859580D01*
X113818645Y-90410785D02*
X113318645Y-89544759D01*
X113318645Y-89544759D02*
X113524842Y-89425712D01*
X113524842Y-89425712D02*
X113672369Y-89395522D01*
X113672369Y-89395522D02*
X113802467Y-89430382D01*
X113802467Y-89430382D02*
X113891325Y-89489051D01*
X113891325Y-89489051D02*
X114027803Y-89630199D01*
X114027803Y-89630199D02*
X114099231Y-89753917D01*
X114099231Y-89753917D02*
X114153230Y-89942683D01*
X114153230Y-89942683D02*
X114159610Y-90048972D01*
X114159610Y-90048972D02*
X114124750Y-90179069D01*
X114124750Y-90179069D02*
X114024842Y-90291737D01*
X114024842Y-90291737D02*
X113818645Y-90410785D01*
X114555824Y-88830474D02*
X114390867Y-88925712D01*
X114390867Y-88925712D02*
X114332198Y-89014570D01*
X114332198Y-89014570D02*
X114314768Y-89079619D01*
X114314768Y-89079619D02*
X114303718Y-89250956D01*
X114303718Y-89250956D02*
X114357717Y-89439723D01*
X114357717Y-89439723D02*
X114548193Y-89769637D01*
X114548193Y-89769637D02*
X114637052Y-89828306D01*
X114637052Y-89828306D02*
X114702100Y-89845736D01*
X114702100Y-89845736D02*
X114808389Y-89839356D01*
X114808389Y-89839356D02*
X114973346Y-89744118D01*
X114973346Y-89744118D02*
X115032015Y-89655260D01*
X115032015Y-89655260D02*
X115049445Y-89590211D01*
X115049445Y-89590211D02*
X115043065Y-89483923D01*
X115043065Y-89483923D02*
X114924017Y-89277726D01*
X114924017Y-89277726D02*
X114835159Y-89219057D01*
X114835159Y-89219057D02*
X114770110Y-89201627D01*
X114770110Y-89201627D02*
X114663822Y-89208007D01*
X114663822Y-89208007D02*
X114498865Y-89303245D01*
X114498865Y-89303245D02*
X114440196Y-89392104D01*
X114440196Y-89392104D02*
X114422766Y-89457152D01*
X114422766Y-89457152D02*
X114429146Y-89563441D01*
X99261905Y-76454819D02*
X99261905Y-75454819D01*
X99261905Y-75454819D02*
X99500000Y-75454819D01*
X99500000Y-75454819D02*
X99642857Y-75502438D01*
X99642857Y-75502438D02*
X99738095Y-75597676D01*
X99738095Y-75597676D02*
X99785714Y-75692914D01*
X99785714Y-75692914D02*
X99833333Y-75883390D01*
X99833333Y-75883390D02*
X99833333Y-76026247D01*
X99833333Y-76026247D02*
X99785714Y-76216723D01*
X99785714Y-76216723D02*
X99738095Y-76311961D01*
X99738095Y-76311961D02*
X99642857Y-76407200D01*
X99642857Y-76407200D02*
X99500000Y-76454819D01*
X99500000Y-76454819D02*
X99261905Y-76454819D01*
X100738095Y-75454819D02*
X100261905Y-75454819D01*
X100261905Y-75454819D02*
X100214286Y-75931009D01*
X100214286Y-75931009D02*
X100261905Y-75883390D01*
X100261905Y-75883390D02*
X100357143Y-75835771D01*
X100357143Y-75835771D02*
X100595238Y-75835771D01*
X100595238Y-75835771D02*
X100690476Y-75883390D01*
X100690476Y-75883390D02*
X100738095Y-75931009D01*
X100738095Y-75931009D02*
X100785714Y-76026247D01*
X100785714Y-76026247D02*
X100785714Y-76264342D01*
X100785714Y-76264342D02*
X100738095Y-76359580D01*
X100738095Y-76359580D02*
X100690476Y-76407200D01*
X100690476Y-76407200D02*
X100595238Y-76454819D01*
X100595238Y-76454819D02*
X100357143Y-76454819D01*
X100357143Y-76454819D02*
X100261905Y-76407200D01*
X100261905Y-76407200D02*
X100214286Y-76359580D01*
X99261905Y-77704819D02*
X99261905Y-76704819D01*
X99261905Y-76704819D02*
X99500000Y-76704819D01*
X99500000Y-76704819D02*
X99642857Y-76752438D01*
X99642857Y-76752438D02*
X99738095Y-76847676D01*
X99738095Y-76847676D02*
X99785714Y-76942914D01*
X99785714Y-76942914D02*
X99833333Y-77133390D01*
X99833333Y-77133390D02*
X99833333Y-77276247D01*
X99833333Y-77276247D02*
X99785714Y-77466723D01*
X99785714Y-77466723D02*
X99738095Y-77561961D01*
X99738095Y-77561961D02*
X99642857Y-77657200D01*
X99642857Y-77657200D02*
X99500000Y-77704819D01*
X99500000Y-77704819D02*
X99261905Y-77704819D01*
X100690476Y-77038152D02*
X100690476Y-77704819D01*
X100452381Y-76657200D02*
X100214286Y-77371485D01*
X100214286Y-77371485D02*
X100833333Y-77371485D01*
X113728073Y-88824127D02*
X113745502Y-88889176D01*
X113745502Y-88889176D02*
X113715313Y-89036703D01*
X113715313Y-89036703D02*
X113667694Y-89119182D01*
X113667694Y-89119182D02*
X113555026Y-89219090D01*
X113555026Y-89219090D02*
X113424929Y-89253950D01*
X113424929Y-89253950D02*
X113318640Y-89247570D01*
X113318640Y-89247570D02*
X113129874Y-89193571D01*
X113129874Y-89193571D02*
X113006156Y-89122143D01*
X113006156Y-89122143D02*
X112865008Y-88985665D01*
X112865008Y-88985665D02*
X112806339Y-88896807D01*
X112806339Y-88896807D02*
X112771479Y-88766709D01*
X112771479Y-88766709D02*
X112801669Y-88619182D01*
X112801669Y-88619182D02*
X112849288Y-88536703D01*
X112849288Y-88536703D02*
X112961956Y-88436795D01*
X112961956Y-88436795D02*
X113027004Y-88419365D01*
X113217481Y-88089451D02*
X113200051Y-88024402D01*
X113200051Y-88024402D02*
X113206431Y-87918114D01*
X113206431Y-87918114D02*
X113325478Y-87711917D01*
X113325478Y-87711917D02*
X113414337Y-87653248D01*
X113414337Y-87653248D02*
X113479385Y-87635818D01*
X113479385Y-87635818D02*
X113585674Y-87642198D01*
X113585674Y-87642198D02*
X113668152Y-87689817D01*
X113668152Y-87689817D02*
X113768061Y-87802485D01*
X113768061Y-87802485D02*
X113977218Y-88583071D01*
X113977218Y-88583071D02*
X114286742Y-88046960D01*
X86060551Y-88871746D02*
X85481492Y-88922326D01*
X85774837Y-89366618D02*
X84908812Y-88866618D01*
X84908812Y-88866618D02*
X85099288Y-88536703D01*
X85099288Y-88536703D02*
X85188146Y-88478034D01*
X85188146Y-88478034D02*
X85253195Y-88460605D01*
X85253195Y-88460605D02*
X85359483Y-88466984D01*
X85359483Y-88466984D02*
X85483201Y-88538413D01*
X85483201Y-88538413D02*
X85541870Y-88627271D01*
X85541870Y-88627271D02*
X85559300Y-88692320D01*
X85559300Y-88692320D02*
X85552920Y-88798608D01*
X85552920Y-88798608D02*
X85362444Y-89128523D01*
X85911772Y-87796105D02*
X86489123Y-88129439D01*
X85462810Y-87811826D02*
X85962352Y-88375165D01*
X85962352Y-88375165D02*
X86271876Y-87839054D01*
X87591188Y-106317580D02*
X86890119Y-106722342D01*
X86890119Y-106722342D02*
X86831450Y-106811200D01*
X86831450Y-106811200D02*
X86814021Y-106876249D01*
X86814021Y-106876249D02*
X86820400Y-106982537D01*
X86820400Y-106982537D02*
X86915638Y-107147495D01*
X86915638Y-107147495D02*
X87004497Y-107206164D01*
X87004497Y-107206164D02*
X87069546Y-107223593D01*
X87069546Y-107223593D02*
X87175834Y-107217214D01*
X87175834Y-107217214D02*
X87876902Y-106812452D01*
X88008709Y-107231225D02*
X88073758Y-107248654D01*
X88073758Y-107248654D02*
X88162616Y-107307323D01*
X88162616Y-107307323D02*
X88281664Y-107513520D01*
X88281664Y-107513520D02*
X88288044Y-107619808D01*
X88288044Y-107619808D02*
X88270614Y-107684857D01*
X88270614Y-107684857D02*
X88211945Y-107773715D01*
X88211945Y-107773715D02*
X88129466Y-107821334D01*
X88129466Y-107821334D02*
X87981939Y-107851524D01*
X87981939Y-107851524D02*
X87201353Y-107642366D01*
X87201353Y-107642366D02*
X87510877Y-108178477D01*
X98704819Y-117666666D02*
X98228628Y-117999999D01*
X98704819Y-118238094D02*
X97704819Y-118238094D01*
X97704819Y-118238094D02*
X97704819Y-117857142D01*
X97704819Y-117857142D02*
X97752438Y-117761904D01*
X97752438Y-117761904D02*
X97800057Y-117714285D01*
X97800057Y-117714285D02*
X97895295Y-117666666D01*
X97895295Y-117666666D02*
X98038152Y-117666666D01*
X98038152Y-117666666D02*
X98133390Y-117714285D01*
X98133390Y-117714285D02*
X98181009Y-117761904D01*
X98181009Y-117761904D02*
X98228628Y-117857142D01*
X98228628Y-117857142D02*
X98228628Y-118238094D01*
X97704819Y-117333332D02*
X97704819Y-116666666D01*
X97704819Y-116666666D02*
X98704819Y-117095237D01*
X85954819Y-100166666D02*
X85954819Y-100642856D01*
X85954819Y-100642856D02*
X84954819Y-100642856D01*
X85288152Y-99404761D02*
X85954819Y-99404761D01*
X84907200Y-99642856D02*
X85621485Y-99880951D01*
X85621485Y-99880951D02*
X85621485Y-99261904D01*
X114954819Y-100166666D02*
X114954819Y-100642856D01*
X114954819Y-100642856D02*
X113954819Y-100642856D01*
X114954819Y-99309523D02*
X114954819Y-99880951D01*
X114954819Y-99595237D02*
X113954819Y-99595237D01*
X113954819Y-99595237D02*
X114097676Y-99690475D01*
X114097676Y-99690475D02*
X114192914Y-99785713D01*
X114192914Y-99785713D02*
X114240533Y-99880951D01*
X106878253Y-87810551D02*
X106465860Y-87572456D01*
X106465860Y-87572456D02*
X106965860Y-86706431D01*
X107578070Y-87169862D02*
X107643119Y-87152432D01*
X107643119Y-87152432D02*
X107749407Y-87158812D01*
X107749407Y-87158812D02*
X107955603Y-87277859D01*
X107955603Y-87277859D02*
X108014272Y-87366718D01*
X108014272Y-87366718D02*
X108031702Y-87431766D01*
X108031702Y-87431766D02*
X108025322Y-87538055D01*
X108025322Y-87538055D02*
X107977703Y-87620533D01*
X107977703Y-87620533D02*
X107865035Y-87720442D01*
X107865035Y-87720442D02*
X107084449Y-87929599D01*
X107084449Y-87929599D02*
X107620560Y-88239123D01*
X104609580Y-117666666D02*
X104657200Y-117714285D01*
X104657200Y-117714285D02*
X104704819Y-117857142D01*
X104704819Y-117857142D02*
X104704819Y-117952380D01*
X104704819Y-117952380D02*
X104657200Y-118095237D01*
X104657200Y-118095237D02*
X104561961Y-118190475D01*
X104561961Y-118190475D02*
X104466723Y-118238094D01*
X104466723Y-118238094D02*
X104276247Y-118285713D01*
X104276247Y-118285713D02*
X104133390Y-118285713D01*
X104133390Y-118285713D02*
X103942914Y-118238094D01*
X103942914Y-118238094D02*
X103847676Y-118190475D01*
X103847676Y-118190475D02*
X103752438Y-118095237D01*
X103752438Y-118095237D02*
X103704819Y-117952380D01*
X103704819Y-117952380D02*
X103704819Y-117857142D01*
X103704819Y-117857142D02*
X103752438Y-117714285D01*
X103752438Y-117714285D02*
X103800057Y-117666666D01*
X104704819Y-116714285D02*
X104704819Y-117285713D01*
X104704819Y-116999999D02*
X103704819Y-116999999D01*
X103704819Y-116999999D02*
X103847676Y-117095237D01*
X103847676Y-117095237D02*
X103942914Y-117190475D01*
X103942914Y-117190475D02*
X103990533Y-117285713D01*
X84124819Y-105166666D02*
X83648628Y-105499999D01*
X84124819Y-105738094D02*
X83124819Y-105738094D01*
X83124819Y-105738094D02*
X83124819Y-105357142D01*
X83124819Y-105357142D02*
X83172438Y-105261904D01*
X83172438Y-105261904D02*
X83220057Y-105214285D01*
X83220057Y-105214285D02*
X83315295Y-105166666D01*
X83315295Y-105166666D02*
X83458152Y-105166666D01*
X83458152Y-105166666D02*
X83553390Y-105214285D01*
X83553390Y-105214285D02*
X83601009Y-105261904D01*
X83601009Y-105261904D02*
X83648628Y-105357142D01*
X83648628Y-105357142D02*
X83648628Y-105738094D01*
X83124819Y-104309523D02*
X83124819Y-104499999D01*
X83124819Y-104499999D02*
X83172438Y-104595237D01*
X83172438Y-104595237D02*
X83220057Y-104642856D01*
X83220057Y-104642856D02*
X83362914Y-104738094D01*
X83362914Y-104738094D02*
X83553390Y-104785713D01*
X83553390Y-104785713D02*
X83934342Y-104785713D01*
X83934342Y-104785713D02*
X84029580Y-104738094D01*
X84029580Y-104738094D02*
X84077200Y-104690475D01*
X84077200Y-104690475D02*
X84124819Y-104595237D01*
X84124819Y-104595237D02*
X84124819Y-104404761D01*
X84124819Y-104404761D02*
X84077200Y-104309523D01*
X84077200Y-104309523D02*
X84029580Y-104261904D01*
X84029580Y-104261904D02*
X83934342Y-104214285D01*
X83934342Y-104214285D02*
X83696247Y-104214285D01*
X83696247Y-104214285D02*
X83601009Y-104261904D01*
X83601009Y-104261904D02*
X83553390Y-104309523D01*
X83553390Y-104309523D02*
X83505771Y-104404761D01*
X83505771Y-104404761D02*
X83505771Y-104595237D01*
X83505771Y-104595237D02*
X83553390Y-104690475D01*
X83553390Y-104690475D02*
X83601009Y-104738094D01*
X83601009Y-104738094D02*
X83696247Y-104785713D01*
X82560551Y-93621746D02*
X81981492Y-93672326D01*
X82274837Y-94116618D02*
X81408812Y-93616618D01*
X81408812Y-93616618D02*
X81599288Y-93286703D01*
X81599288Y-93286703D02*
X81688146Y-93228034D01*
X81688146Y-93228034D02*
X81753195Y-93210605D01*
X81753195Y-93210605D02*
X81859483Y-93216984D01*
X81859483Y-93216984D02*
X81983201Y-93288413D01*
X81983201Y-93288413D02*
X82041870Y-93377271D01*
X82041870Y-93377271D02*
X82059300Y-93442320D01*
X82059300Y-93442320D02*
X82052920Y-93548608D01*
X82052920Y-93548608D02*
X81862444Y-93878523D01*
X82146907Y-92338199D02*
X81908812Y-92750592D01*
X81908812Y-92750592D02*
X82297395Y-93029927D01*
X82297395Y-93029927D02*
X82279965Y-92964878D01*
X82279965Y-92964878D02*
X82286345Y-92858590D01*
X82286345Y-92858590D02*
X82405393Y-92652393D01*
X82405393Y-92652393D02*
X82494251Y-92593724D01*
X82494251Y-92593724D02*
X82559300Y-92576295D01*
X82559300Y-92576295D02*
X82665588Y-92582674D01*
X82665588Y-92582674D02*
X82871785Y-92701722D01*
X82871785Y-92701722D02*
X82930454Y-92790580D01*
X82930454Y-92790580D02*
X82947883Y-92855629D01*
X82947883Y-92855629D02*
X82941504Y-92961917D01*
X82941504Y-92961917D02*
X82822456Y-93168114D01*
X82822456Y-93168114D02*
X82733598Y-93226783D01*
X82733598Y-93226783D02*
X82668549Y-93244213D01*
X107333072Y-112977217D02*
X106920679Y-113215313D01*
X106920679Y-113215313D02*
X106420679Y-112349287D01*
X107492901Y-111730240D02*
X107327944Y-111825478D01*
X107327944Y-111825478D02*
X107269275Y-111914336D01*
X107269275Y-111914336D02*
X107251845Y-111979385D01*
X107251845Y-111979385D02*
X107240795Y-112150722D01*
X107240795Y-112150722D02*
X107294793Y-112339489D01*
X107294793Y-112339489D02*
X107485270Y-112669403D01*
X107485270Y-112669403D02*
X107574128Y-112728072D01*
X107574128Y-112728072D02*
X107639177Y-112745502D01*
X107639177Y-112745502D02*
X107745465Y-112739122D01*
X107745465Y-112739122D02*
X107910422Y-112643884D01*
X107910422Y-112643884D02*
X107969091Y-112555026D01*
X107969091Y-112555026D02*
X107986521Y-112489977D01*
X107986521Y-112489977D02*
X107980141Y-112383689D01*
X107980141Y-112383689D02*
X107861094Y-112177492D01*
X107861094Y-112177492D02*
X107772235Y-112118823D01*
X107772235Y-112118823D02*
X107707187Y-112101393D01*
X107707187Y-112101393D02*
X107600898Y-112107773D01*
X107600898Y-112107773D02*
X107435941Y-112203011D01*
X107435941Y-112203011D02*
X107377272Y-112291870D01*
X107377272Y-112291870D02*
X107359842Y-112356918D01*
X107359842Y-112356918D02*
X107366222Y-112463207D01*
X95199580Y-117666666D02*
X95247200Y-117714285D01*
X95247200Y-117714285D02*
X95294819Y-117857142D01*
X95294819Y-117857142D02*
X95294819Y-117952380D01*
X95294819Y-117952380D02*
X95247200Y-118095237D01*
X95247200Y-118095237D02*
X95151961Y-118190475D01*
X95151961Y-118190475D02*
X95056723Y-118238094D01*
X95056723Y-118238094D02*
X94866247Y-118285713D01*
X94866247Y-118285713D02*
X94723390Y-118285713D01*
X94723390Y-118285713D02*
X94532914Y-118238094D01*
X94532914Y-118238094D02*
X94437676Y-118190475D01*
X94437676Y-118190475D02*
X94342438Y-118095237D01*
X94342438Y-118095237D02*
X94294819Y-117952380D01*
X94294819Y-117952380D02*
X94294819Y-117857142D01*
X94294819Y-117857142D02*
X94342438Y-117714285D01*
X94342438Y-117714285D02*
X94390057Y-117666666D01*
X94294819Y-116761904D02*
X94294819Y-117238094D01*
X94294819Y-117238094D02*
X94771009Y-117285713D01*
X94771009Y-117285713D02*
X94723390Y-117238094D01*
X94723390Y-117238094D02*
X94675771Y-117142856D01*
X94675771Y-117142856D02*
X94675771Y-116904761D01*
X94675771Y-116904761D02*
X94723390Y-116809523D01*
X94723390Y-116809523D02*
X94771009Y-116761904D01*
X94771009Y-116761904D02*
X94866247Y-116714285D01*
X94866247Y-116714285D02*
X95104342Y-116714285D01*
X95104342Y-116714285D02*
X95199580Y-116761904D01*
X95199580Y-116761904D02*
X95247200Y-116809523D01*
X95247200Y-116809523D02*
X95294819Y-116904761D01*
X95294819Y-116904761D02*
X95294819Y-117142856D01*
X95294819Y-117142856D02*
X95247200Y-117238094D01*
X95247200Y-117238094D02*
X95199580Y-117285713D01*
X99238095Y-128304819D02*
X99238095Y-129114342D01*
X99238095Y-129114342D02*
X99285714Y-129209580D01*
X99285714Y-129209580D02*
X99333333Y-129257200D01*
X99333333Y-129257200D02*
X99428571Y-129304819D01*
X99428571Y-129304819D02*
X99619047Y-129304819D01*
X99619047Y-129304819D02*
X99714285Y-129257200D01*
X99714285Y-129257200D02*
X99761904Y-129209580D01*
X99761904Y-129209580D02*
X99809523Y-129114342D01*
X99809523Y-129114342D02*
X99809523Y-128304819D01*
X100190476Y-128304819D02*
X100809523Y-128304819D01*
X100809523Y-128304819D02*
X100476190Y-128685771D01*
X100476190Y-128685771D02*
X100619047Y-128685771D01*
X100619047Y-128685771D02*
X100714285Y-128733390D01*
X100714285Y-128733390D02*
X100761904Y-128781009D01*
X100761904Y-128781009D02*
X100809523Y-128876247D01*
X100809523Y-128876247D02*
X100809523Y-129114342D01*
X100809523Y-129114342D02*
X100761904Y-129209580D01*
X100761904Y-129209580D02*
X100714285Y-129257200D01*
X100714285Y-129257200D02*
X100619047Y-129304819D01*
X100619047Y-129304819D02*
X100333333Y-129304819D01*
X100333333Y-129304819D02*
X100238095Y-129257200D01*
X100238095Y-129257200D02*
X100190476Y-129209580D01*
X116699580Y-95166666D02*
X116747200Y-95214285D01*
X116747200Y-95214285D02*
X116794819Y-95357142D01*
X116794819Y-95357142D02*
X116794819Y-95452380D01*
X116794819Y-95452380D02*
X116747200Y-95595237D01*
X116747200Y-95595237D02*
X116651961Y-95690475D01*
X116651961Y-95690475D02*
X116556723Y-95738094D01*
X116556723Y-95738094D02*
X116366247Y-95785713D01*
X116366247Y-95785713D02*
X116223390Y-95785713D01*
X116223390Y-95785713D02*
X116032914Y-95738094D01*
X116032914Y-95738094D02*
X115937676Y-95690475D01*
X115937676Y-95690475D02*
X115842438Y-95595237D01*
X115842438Y-95595237D02*
X115794819Y-95452380D01*
X115794819Y-95452380D02*
X115794819Y-95357142D01*
X115794819Y-95357142D02*
X115842438Y-95214285D01*
X115842438Y-95214285D02*
X115890057Y-95166666D01*
X116128152Y-94309523D02*
X116794819Y-94309523D01*
X115747200Y-94547618D02*
X116461485Y-94785713D01*
X116461485Y-94785713D02*
X116461485Y-94166666D01*
X99261905Y-80204819D02*
X99261905Y-79204819D01*
X99261905Y-79204819D02*
X99500000Y-79204819D01*
X99500000Y-79204819D02*
X99642857Y-79252438D01*
X99642857Y-79252438D02*
X99738095Y-79347676D01*
X99738095Y-79347676D02*
X99785714Y-79442914D01*
X99785714Y-79442914D02*
X99833333Y-79633390D01*
X99833333Y-79633390D02*
X99833333Y-79776247D01*
X99833333Y-79776247D02*
X99785714Y-79966723D01*
X99785714Y-79966723D02*
X99738095Y-80061961D01*
X99738095Y-80061961D02*
X99642857Y-80157200D01*
X99642857Y-80157200D02*
X99500000Y-80204819D01*
X99500000Y-80204819D02*
X99261905Y-80204819D01*
X100214286Y-79300057D02*
X100261905Y-79252438D01*
X100261905Y-79252438D02*
X100357143Y-79204819D01*
X100357143Y-79204819D02*
X100595238Y-79204819D01*
X100595238Y-79204819D02*
X100690476Y-79252438D01*
X100690476Y-79252438D02*
X100738095Y-79300057D01*
X100738095Y-79300057D02*
X100785714Y-79395295D01*
X100785714Y-79395295D02*
X100785714Y-79490533D01*
X100785714Y-79490533D02*
X100738095Y-79633390D01*
X100738095Y-79633390D02*
X100166667Y-80204819D01*
X100166667Y-80204819D02*
X100785714Y-80204819D01*
X92378253Y-112867920D02*
X91965860Y-112629825D01*
X91965860Y-112629825D02*
X92465860Y-111763800D01*
X93579321Y-112406657D02*
X93166928Y-112168562D01*
X93166928Y-112168562D02*
X92887593Y-112557145D01*
X92887593Y-112557145D02*
X92952642Y-112539715D01*
X92952642Y-112539715D02*
X93058930Y-112546095D01*
X93058930Y-112546095D02*
X93265127Y-112665143D01*
X93265127Y-112665143D02*
X93323796Y-112754001D01*
X93323796Y-112754001D02*
X93341226Y-112819050D01*
X93341226Y-112819050D02*
X93334846Y-112925338D01*
X93334846Y-112925338D02*
X93215798Y-113131535D01*
X93215798Y-113131535D02*
X93126940Y-113190204D01*
X93126940Y-113190204D02*
X93061891Y-113207633D01*
X93061891Y-113207633D02*
X92955603Y-113201254D01*
X92955603Y-113201254D02*
X92749407Y-113082206D01*
X92749407Y-113082206D02*
X92690738Y-112993348D01*
X92690738Y-112993348D02*
X92673308Y-112928299D01*
X117459189Y-105859912D02*
X117370331Y-105918581D01*
X117370331Y-105918581D02*
X117240233Y-105953440D01*
X117240233Y-105953440D02*
X117045086Y-106005730D01*
X117045086Y-106005730D02*
X116956228Y-106064399D01*
X116956228Y-106064399D02*
X116908609Y-106146877D01*
X117138615Y-106224686D02*
X117049757Y-106283355D01*
X117049757Y-106283355D02*
X116919659Y-106318214D01*
X116919659Y-106318214D02*
X116730892Y-106264216D01*
X116730892Y-106264216D02*
X116442217Y-106097549D01*
X116442217Y-106097549D02*
X116301069Y-105961071D01*
X116301069Y-105961071D02*
X116266210Y-105830974D01*
X116266210Y-105830974D02*
X116272590Y-105724686D01*
X116272590Y-105724686D02*
X116367828Y-105559728D01*
X116367828Y-105559728D02*
X116456686Y-105501059D01*
X116456686Y-105501059D02*
X116586784Y-105466200D01*
X116586784Y-105466200D02*
X116775551Y-105520199D01*
X116775551Y-105520199D02*
X117064226Y-105686865D01*
X117064226Y-105686865D02*
X117205373Y-105823343D01*
X117205373Y-105823343D02*
X117240233Y-105953440D01*
X117240233Y-105953440D02*
X117233853Y-106059728D01*
X117233853Y-106059728D02*
X117138615Y-106224686D01*
X116653542Y-105064857D02*
X116963066Y-104528746D01*
X116963066Y-104528746D02*
X117126314Y-105007897D01*
X117126314Y-105007897D02*
X117197742Y-104884179D01*
X117197742Y-104884179D02*
X117286601Y-104825510D01*
X117286601Y-104825510D02*
X117351649Y-104808080D01*
X117351649Y-104808080D02*
X117457937Y-104814460D01*
X117457937Y-104814460D02*
X117664134Y-104933508D01*
X117664134Y-104933508D02*
X117722803Y-105022366D01*
X117722803Y-105022366D02*
X117740233Y-105087415D01*
X117740233Y-105087415D02*
X117733853Y-105193703D01*
X117733853Y-105193703D02*
X117590996Y-105441139D01*
X117590996Y-105441139D02*
X117502138Y-105499808D01*
X117502138Y-105499808D02*
X117437089Y-105517238D01*
X87310551Y-89621746D02*
X86731492Y-89672326D01*
X87024837Y-90116618D02*
X86158812Y-89616618D01*
X86158812Y-89616618D02*
X86349288Y-89286703D01*
X86349288Y-89286703D02*
X86438146Y-89228034D01*
X86438146Y-89228034D02*
X86503195Y-89210605D01*
X86503195Y-89210605D02*
X86609483Y-89216984D01*
X86609483Y-89216984D02*
X86733201Y-89288413D01*
X86733201Y-89288413D02*
X86791870Y-89377271D01*
X86791870Y-89377271D02*
X86809300Y-89442320D01*
X86809300Y-89442320D02*
X86802920Y-89548608D01*
X86802920Y-89548608D02*
X86612444Y-89878523D01*
X86717481Y-88839451D02*
X86700051Y-88774402D01*
X86700051Y-88774402D02*
X86706431Y-88668114D01*
X86706431Y-88668114D02*
X86825478Y-88461917D01*
X86825478Y-88461917D02*
X86914337Y-88403248D01*
X86914337Y-88403248D02*
X86979385Y-88385818D01*
X86979385Y-88385818D02*
X87085674Y-88392198D01*
X87085674Y-88392198D02*
X87168152Y-88439817D01*
X87168152Y-88439817D02*
X87268061Y-88552485D01*
X87268061Y-88552485D02*
X87477218Y-89333071D01*
X87477218Y-89333071D02*
X87786742Y-88796960D01*
X92833072Y-87919848D02*
X92420679Y-88157944D01*
X92420679Y-88157944D02*
X91920679Y-87291918D01*
X92539268Y-86934775D02*
X93075379Y-86625252D01*
X93075379Y-86625252D02*
X92977180Y-87121833D01*
X92977180Y-87121833D02*
X93100898Y-87050404D01*
X93100898Y-87050404D02*
X93207187Y-87044024D01*
X93207187Y-87044024D02*
X93272235Y-87061454D01*
X93272235Y-87061454D02*
X93361094Y-87120123D01*
X93361094Y-87120123D02*
X93480141Y-87326320D01*
X93480141Y-87326320D02*
X93486521Y-87432608D01*
X93486521Y-87432608D02*
X93469091Y-87497657D01*
X93469091Y-87497657D02*
X93410422Y-87586515D01*
X93410422Y-87586515D02*
X93162986Y-87729372D01*
X93162986Y-87729372D02*
X93056698Y-87735752D01*
X93056698Y-87735752D02*
X92991649Y-87718322D01*
X99261905Y-81454819D02*
X99261905Y-80454819D01*
X99261905Y-80454819D02*
X99500000Y-80454819D01*
X99500000Y-80454819D02*
X99642857Y-80502438D01*
X99642857Y-80502438D02*
X99738095Y-80597676D01*
X99738095Y-80597676D02*
X99785714Y-80692914D01*
X99785714Y-80692914D02*
X99833333Y-80883390D01*
X99833333Y-80883390D02*
X99833333Y-81026247D01*
X99833333Y-81026247D02*
X99785714Y-81216723D01*
X99785714Y-81216723D02*
X99738095Y-81311961D01*
X99738095Y-81311961D02*
X99642857Y-81407200D01*
X99642857Y-81407200D02*
X99500000Y-81454819D01*
X99500000Y-81454819D02*
X99261905Y-81454819D01*
X100785714Y-81454819D02*
X100214286Y-81454819D01*
X100500000Y-81454819D02*
X100500000Y-80454819D01*
X100500000Y-80454819D02*
X100404762Y-80597676D01*
X100404762Y-80597676D02*
X100309524Y-80692914D01*
X100309524Y-80692914D02*
X100214286Y-80740533D01*
X83810551Y-94371746D02*
X83231492Y-94422326D01*
X83524837Y-94866618D02*
X82658812Y-94366618D01*
X82658812Y-94366618D02*
X82849288Y-94036703D01*
X82849288Y-94036703D02*
X82938146Y-93978034D01*
X82938146Y-93978034D02*
X83003195Y-93960605D01*
X83003195Y-93960605D02*
X83109483Y-93966984D01*
X83109483Y-93966984D02*
X83233201Y-94038413D01*
X83233201Y-94038413D02*
X83291870Y-94127271D01*
X83291870Y-94127271D02*
X83309300Y-94192320D01*
X83309300Y-94192320D02*
X83302920Y-94298608D01*
X83302920Y-94298608D02*
X83112444Y-94628523D01*
X83111193Y-93583071D02*
X83420716Y-93046960D01*
X83420716Y-93046960D02*
X83583964Y-93526111D01*
X83583964Y-93526111D02*
X83655393Y-93402393D01*
X83655393Y-93402393D02*
X83744251Y-93343724D01*
X83744251Y-93343724D02*
X83809300Y-93326295D01*
X83809300Y-93326295D02*
X83915588Y-93332674D01*
X83915588Y-93332674D02*
X84121785Y-93451722D01*
X84121785Y-93451722D02*
X84180454Y-93540580D01*
X84180454Y-93540580D02*
X84197883Y-93605629D01*
X84197883Y-93605629D02*
X84191504Y-93711917D01*
X84191504Y-93711917D02*
X84048646Y-93959353D01*
X84048646Y-93959353D02*
X83959788Y-94018022D01*
X83959788Y-94018022D02*
X83894739Y-94035452D01*
X86523150Y-111734127D02*
X86540579Y-111799176D01*
X86540579Y-111799176D02*
X86510390Y-111946703D01*
X86510390Y-111946703D02*
X86462771Y-112029182D01*
X86462771Y-112029182D02*
X86350103Y-112129090D01*
X86350103Y-112129090D02*
X86220006Y-112163950D01*
X86220006Y-112163950D02*
X86113717Y-112157570D01*
X86113717Y-112157570D02*
X85924951Y-112103571D01*
X85924951Y-112103571D02*
X85801233Y-112032143D01*
X85801233Y-112032143D02*
X85660085Y-111895665D01*
X85660085Y-111895665D02*
X85601416Y-111806807D01*
X85601416Y-111806807D02*
X85566556Y-111676709D01*
X85566556Y-111676709D02*
X85596746Y-111529182D01*
X85596746Y-111529182D02*
X85644365Y-111446703D01*
X85644365Y-111446703D02*
X85757033Y-111346795D01*
X85757033Y-111346795D02*
X85822081Y-111329365D01*
X85906270Y-110993071D02*
X86215793Y-110456960D01*
X86215793Y-110456960D02*
X86379041Y-110936111D01*
X86379041Y-110936111D02*
X86450470Y-110812393D01*
X86450470Y-110812393D02*
X86539328Y-110753724D01*
X86539328Y-110753724D02*
X86604377Y-110736295D01*
X86604377Y-110736295D02*
X86710665Y-110742674D01*
X86710665Y-110742674D02*
X86916862Y-110861722D01*
X86916862Y-110861722D02*
X86975531Y-110950580D01*
X86975531Y-110950580D02*
X86992960Y-111015629D01*
X86992960Y-111015629D02*
X86986581Y-111121917D01*
X86986581Y-111121917D02*
X86843723Y-111369353D01*
X86843723Y-111369353D02*
X86754865Y-111428022D01*
X86754865Y-111428022D02*
X86689816Y-111445452D01*
X113024837Y-113366618D02*
X112158812Y-112866618D01*
X112158812Y-112866618D02*
X112277859Y-112660421D01*
X112277859Y-112660421D02*
X112390527Y-112560513D01*
X112390527Y-112560513D02*
X112520625Y-112525653D01*
X112520625Y-112525653D02*
X112626913Y-112532033D01*
X112626913Y-112532033D02*
X112815680Y-112586032D01*
X112815680Y-112586032D02*
X112939398Y-112657460D01*
X112939398Y-112657460D02*
X113080545Y-112793938D01*
X113080545Y-112793938D02*
X113139214Y-112882796D01*
X113139214Y-112882796D02*
X113174074Y-113012894D01*
X113174074Y-113012894D02*
X113143885Y-113160421D01*
X113143885Y-113160421D02*
X113024837Y-113366618D01*
X112611193Y-112083071D02*
X112944526Y-111505721D01*
X112944526Y-111505721D02*
X113596266Y-112376875D01*
X85060551Y-95121746D02*
X84481492Y-95172326D01*
X84774837Y-95616618D02*
X83908812Y-95116618D01*
X83908812Y-95116618D02*
X84099288Y-94786703D01*
X84099288Y-94786703D02*
X84188146Y-94728034D01*
X84188146Y-94728034D02*
X84253195Y-94710605D01*
X84253195Y-94710605D02*
X84359483Y-94716984D01*
X84359483Y-94716984D02*
X84483201Y-94788413D01*
X84483201Y-94788413D02*
X84541870Y-94877271D01*
X84541870Y-94877271D02*
X84559300Y-94942320D01*
X84559300Y-94942320D02*
X84552920Y-95048608D01*
X84552920Y-95048608D02*
X84362444Y-95378523D01*
X85536742Y-94296960D02*
X85251027Y-94791832D01*
X85393885Y-94544396D02*
X84527859Y-94044396D01*
X84527859Y-94044396D02*
X84603958Y-94198303D01*
X84603958Y-94198303D02*
X84638818Y-94328401D01*
X84638818Y-94328401D02*
X84632438Y-94434689D01*
D11*
%TO.C,D3*%
X98960000Y-72750000D02*
G75*
G03*
X98860000Y-72750000I-50000J0D01*
G01*
X98860000Y-72750000D02*
G75*
G03*
X98960000Y-72750000I50000J0D01*
G01*
D12*
%TO.C,D6*%
X114186144Y-92791122D02*
X116489772Y-91461122D01*
X113336144Y-91318878D02*
X115639772Y-89988878D01*
X113336144Y-91318878D02*
X114186144Y-92791122D01*
D11*
%TO.C,D5*%
X98960000Y-70750000D02*
G75*
G03*
X98860000Y-70750000I-50000J0D01*
G01*
X98860000Y-70750000D02*
G75*
G03*
X98960000Y-70750000I50000J0D01*
G01*
%TO.C,D4*%
X98960000Y-71750000D02*
G75*
G03*
X98860000Y-71750000I-50000J0D01*
G01*
X98860000Y-71750000D02*
G75*
G03*
X98960000Y-71750000I50000J0D01*
G01*
D12*
%TO.C,C2*%
X112755903Y-88343751D02*
X113017155Y-87891249D01*
X111482845Y-87608751D02*
X111744097Y-87156249D01*
%TO.C,R4*%
X85002269Y-90323057D02*
X85155910Y-90056943D01*
X84344090Y-89943057D02*
X84497731Y-89676943D01*
%TO.C,U2*%
X84666616Y-110711801D02*
X84463100Y-110829301D01*
X87043856Y-109339301D02*
X86632494Y-109576801D01*
X84017754Y-110537939D02*
X84105254Y-110689493D01*
X86806356Y-108927939D02*
X87043856Y-109339301D01*
X82882754Y-108572061D02*
X82645254Y-108160699D01*
X85671356Y-106962061D02*
X85433856Y-106550699D01*
X82645254Y-108160699D02*
X83056616Y-107923199D01*
X85433856Y-106550699D02*
X85022494Y-106788199D01*
X84255254Y-110949301D02*
X84089466Y-111322147D01*
X83849466Y-110906455D01*
X84255254Y-110949301D01*
G36*
X84255254Y-110949301D02*
G01*
X84089466Y-111322147D01*
X83849466Y-110906455D01*
X84255254Y-110949301D01*
G37*
%TO.C,R7*%
X97380000Y-117653641D02*
X97380000Y-117346359D01*
X96620000Y-117653641D02*
X96620000Y-117346359D01*
%TO.C,L4*%
X80250000Y-101000000D02*
X80250000Y-99000000D01*
X84750000Y-101000000D02*
X84750000Y-99000000D01*
%TO.C,L1*%
X115250000Y-101000000D02*
X115250000Y-99000000D01*
X119750000Y-101000000D02*
X119750000Y-99000000D01*
%TO.C,L2*%
X106758975Y-86293112D02*
X108491025Y-87293112D01*
X109008975Y-82395998D02*
X110741025Y-83395998D01*
%TO.C,C1*%
X103360000Y-117384165D02*
X103360000Y-117615835D01*
X102640000Y-117384165D02*
X102640000Y-117615835D01*
%TO.C,R6*%
X82880000Y-104846359D02*
X82880000Y-105153641D01*
X82120000Y-104846359D02*
X82120000Y-105153641D01*
%TO.C,R5*%
X82594090Y-91443057D02*
X82747731Y-91176943D01*
X83252269Y-91823057D02*
X83405910Y-91556943D01*
%TO.C,L6*%
X110741025Y-116604002D02*
X109008975Y-117604002D01*
X108491025Y-112706888D02*
X106758975Y-113706888D01*
%TO.C,C5*%
X95640000Y-117615835D02*
X95640000Y-117384165D01*
X96360000Y-117615835D02*
X96360000Y-117384165D01*
%TO.C,U3*%
X100000000Y-129690000D02*
X99350000Y-129690000D01*
X100000000Y-129690000D02*
X100650000Y-129690000D01*
X100000000Y-132810000D02*
X99350000Y-132810000D01*
X100000000Y-132810000D02*
X100650000Y-132810000D01*
X98837500Y-129740000D02*
X98597500Y-129410000D01*
X99077500Y-129410000D01*
X98837500Y-129740000D01*
G36*
X98837500Y-129740000D02*
G01*
X98597500Y-129410000D01*
X99077500Y-129410000D01*
X98837500Y-129740000D01*
G37*
%TO.C,C4*%
X117140000Y-95115835D02*
X117140000Y-94884165D01*
X117860000Y-95115835D02*
X117860000Y-94884165D01*
D11*
%TO.C,D2*%
X98960000Y-73750000D02*
G75*
G03*
X98860000Y-73750000I-50000J0D01*
G01*
X98860000Y-73750000D02*
G75*
G03*
X98960000Y-73750000I50000J0D01*
G01*
D12*
%TO.C,L5*%
X91508975Y-112706888D02*
X93241025Y-113706888D01*
X89258975Y-116604002D02*
X90991025Y-117604002D01*
%TO.C,Q3*%
X115897984Y-105783885D02*
X115525138Y-105949674D01*
X115482291Y-105543885D01*
X115897984Y-105783885D01*
G36*
X115897984Y-105783885D02*
G01*
X115525138Y-105949674D01*
X115482291Y-105543885D01*
X115897984Y-105783885D01*
G37*
X114719227Y-108105551D02*
X115931663Y-108805551D01*
X115870567Y-106091373D02*
X117091663Y-106796373D01*
%TO.C,R2*%
X85594090Y-90693057D02*
X85747731Y-90426943D01*
X86252269Y-91073057D02*
X86405910Y-90806943D01*
%TO.C,L3*%
X93241025Y-86293112D02*
X91508975Y-87293112D01*
X90991025Y-82395998D02*
X89258975Y-83395998D01*
D11*
%TO.C,D1*%
X98960000Y-74750000D02*
G75*
G03*
X98860000Y-74750000I-50000J0D01*
G01*
X98860000Y-74750000D02*
G75*
G03*
X98960000Y-74750000I50000J0D01*
G01*
D12*
%TO.C,R3*%
X83844090Y-92193057D02*
X83997731Y-91926943D01*
X84502269Y-92573057D02*
X84655910Y-92306943D01*
%TO.C,C3*%
X86982845Y-112108751D02*
X87244097Y-111656249D01*
X88255903Y-112843751D02*
X88517155Y-112391249D01*
%TO.C,D7*%
X115500034Y-110473154D02*
X114795034Y-111694250D01*
X113490856Y-109313154D02*
X112785856Y-110534250D01*
X114795034Y-111694250D02*
X114223458Y-111364250D01*
X113357432Y-110864250D02*
X112785856Y-110534250D01*
X115833502Y-110515570D02*
X115667714Y-110142724D01*
X116073502Y-110099878D01*
X115833502Y-110515570D01*
G36*
X115833502Y-110515570D02*
G01*
X115667714Y-110142724D01*
X116073502Y-110099878D01*
X115833502Y-110515570D01*
G37*
%TO.C,R1*%
X85094090Y-92943057D02*
X85247731Y-92676943D01*
X85752269Y-93323057D02*
X85905910Y-93056943D01*
%TD*%
M02*
