M48
; DRILL file {KiCad 7.0.10-7.0.10~ubuntu20.04.1} date Lu 01 iul 2024 02:37:53 +0300
; FORMAT={-:-/ absolute / inch / decimal}
; #@! TF.CreationDate,2024-07-01T02:37:53+03:00
; #@! TF.GenerationSoftware,Kicad,Pcbnew,7.0.10-7.0.10~ubuntu20.04.1
; #@! TF.FileFunction,MixedPlating,1,2
FMAT,2
INCH
; #@! TA.AperFunction,Plated,PTH,ViaDrill
T1C0.0157
%
G90
G05
T1
X3.189Y-3.7992
X3.189Y-4.0748
X3.248Y-4.0748
X3.3403Y-4.2815
X3.4154Y-4.3996
X3.4437Y-3.3581
X3.4437Y-4.5159
X3.4646Y-4.2618
X3.4941Y-4.439
X3.5925Y-4.3307
X3.6823Y-3.2203
X3.6823Y-4.6537
X3.7795Y-4.5669
X3.878Y-2.8051
X3.878Y-2.8445
X3.878Y-3.0217
X3.878Y-3.061
X3.937Y-4.6063
X4.0945Y-4.5669
X4.1437Y-4.5374
X4.1917Y-3.2203
X4.1917Y-4.6537
X4.3799Y-3.435
X4.3799Y-4.439
X4.4304Y-3.3581
X4.4979Y-3.9369
X4.5632Y-4.2304
X4.685Y-3.7992
M30
