%TF.GenerationSoftware,KiCad,Pcbnew,7.0.10-7.0.10~ubuntu20.04.1*%
%TF.CreationDate,2024-07-27T02:52:01+03:00*%
%TF.ProjectId,Prog,50726f67-2e6b-4696-9361-645f70636258,rev?*%
%TF.SameCoordinates,Original*%
%TF.FileFunction,Copper,L1,Top*%
%TF.FilePolarity,Positive*%
%FSLAX46Y46*%
G04 Gerber Fmt 4.6, Leading zero omitted, Abs format (unit mm)*
G04 Created by KiCad (PCBNEW 7.0.10-7.0.10~ubuntu20.04.1) date 2024-07-27 02:52:01*
%MOMM*%
%LPD*%
G01*
G04 APERTURE LIST*
G04 Aperture macros list*
%AMRoundRect*
0 Rectangle with rounded corners*
0 $1 Rounding radius*
0 $2 $3 $4 $5 $6 $7 $8 $9 X,Y pos of 4 corners*
0 Add a 4 corners polygon primitive as box body*
4,1,4,$2,$3,$4,$5,$6,$7,$8,$9,$2,$3,0*
0 Add four circle primitives for the rounded corners*
1,1,$1+$1,$2,$3*
1,1,$1+$1,$4,$5*
1,1,$1+$1,$6,$7*
1,1,$1+$1,$8,$9*
0 Add four rect primitives between the rounded corners*
20,1,$1+$1,$2,$3,$4,$5,0*
20,1,$1+$1,$4,$5,$6,$7,0*
20,1,$1+$1,$6,$7,$8,$9,0*
20,1,$1+$1,$8,$9,$2,$3,0*%
G04 Aperture macros list end*
%TA.AperFunction,ComponentPad*%
%ADD10RoundRect,0.250000X0.600000X-0.600000X0.600000X0.600000X-0.600000X0.600000X-0.600000X-0.600000X0*%
%TD*%
%TA.AperFunction,ComponentPad*%
%ADD11C,1.700000*%
%TD*%
%TA.AperFunction,ComponentPad*%
%ADD12C,1.800000*%
%TD*%
%TA.AperFunction,Conductor*%
%ADD13C,0.500000*%
%TD*%
G04 APERTURE END LIST*
D10*
%TO.P,J6,1,Pin_1*%
%TO.N,Net-(J2-Pin_1)*%
X105080000Y-136752500D03*
D11*
%TO.P,J6,2,Pin_2*%
%TO.N,Net-(J3-Pin_1)*%
X105080000Y-134212500D03*
%TO.P,J6,3,Pin_3*%
%TO.N,Net-(J5-Pin_1)*%
X102540000Y-136752500D03*
%TO.P,J6,4,Pin_4*%
%TO.N,unconnected-(J6-Pin_4-Pad4)*%
X102540000Y-134212500D03*
%TO.P,J6,5,Pin_5*%
%TO.N,unconnected-(J6-Pin_5-Pad5)*%
X100000000Y-136752500D03*
%TO.P,J6,6,Pin_6*%
%TO.N,Net-(J4-Pin_1)*%
X100000000Y-134212500D03*
%TO.P,J6,7,Pin_7*%
%TO.N,unconnected-(J6-Pin_7-Pad7)*%
X97460000Y-136752500D03*
%TO.P,J6,8,Pin_8*%
%TO.N,Net-(J1-Pin_1)*%
X97460000Y-134212500D03*
%TO.P,J6,9,Pin_9*%
%TO.N,unconnected-(J6-Pin_9-Pad9)*%
X94920000Y-136752500D03*
%TO.P,J6,10,Pin_10*%
%TO.N,unconnected-(J6-Pin_10-Pad10)*%
X94920000Y-134212500D03*
%TD*%
%TO.P,J5,1,Pin_1*%
%TO.N,Net-(J5-Pin_1)*%
X84844600Y-108750000D03*
%TD*%
%TO.P,J4,1,Pin_1*%
%TO.N,Net-(J4-Pin_1)*%
X115155400Y-108750000D03*
%TD*%
%TO.P,J3,1,Pin_1*%
%TO.N,Net-(J3-Pin_1)*%
X115155400Y-91250000D03*
%TD*%
%TO.P,J2,1,Pin_1*%
%TO.N,Net-(J2-Pin_1)*%
X100000000Y-82500000D03*
%TD*%
D12*
%TO.P,J1,1,Pin_1*%
%TO.N,Net-(J1-Pin_1)*%
X100000000Y-117500000D03*
%TD*%
D13*
%TO.N,Net-(J5-Pin_1)*%
X100540000Y-139000000D02*
G75*
G03*
X102540000Y-137000000I0J2000000D01*
G01*
X92000000Y-137000000D02*
G75*
G03*
X94000000Y-139000000I2000000J0D01*
G01*
X91999980Y-130328427D02*
G75*
G03*
X91414212Y-128914214I-1999980J27D01*
G01*
X73000020Y-109671573D02*
G75*
G03*
X73585787Y-111085785I1999980J-27D01*
G01*
X92000000Y-137000000D02*
X92000000Y-130328427D01*
X75000000Y-94425600D02*
G75*
G03*
X73000000Y-96425598I0J-2000000D01*
G01*
X91414213Y-128914213D02*
X73585786Y-111085786D01*
X77151752Y-95425598D02*
X84844600Y-108750000D01*
X77151752Y-95425598D02*
G75*
G03*
X75419702Y-94425598I-1732052J-1000002D01*
G01*
X102540000Y-136752500D02*
X102540000Y-137000000D01*
X100540000Y-139000000D02*
X94000000Y-139000000D01*
X73000000Y-109671573D02*
X73000000Y-96425598D01*
X75000000Y-94425598D02*
X75419702Y-94425598D01*
%TO.N,Net-(J2-Pin_1)*%
X126499980Y-93328427D02*
G75*
G03*
X125914212Y-91914214I-1999980J27D01*
G01*
X117085800Y-83085772D02*
G75*
G03*
X115671573Y-82500000I-1414200J-1414228D01*
G01*
%TO.N,Net-(J3-Pin_1)*%
X123059562Y-105476326D02*
G75*
G03*
X122791622Y-104476326I-1999962J26D01*
G01*
%TO.N,Net-(J4-Pin_1)*%
X106768261Y-123140629D02*
G75*
G03*
X107086107Y-122726425I-1414161J1414229D01*
G01*
X100585769Y-129323103D02*
G75*
G03*
X100000000Y-130737335I1414231J-1414197D01*
G01*
%TO.N,Net-(J2-Pin_1)*%
X106000000Y-136752500D02*
G75*
G03*
X108000000Y-134752500I0J2000000D01*
G01*
X125914228Y-111585800D02*
G75*
G03*
X126500000Y-110171573I-1414228J1414200D01*
G01*
X108585773Y-128914199D02*
G75*
G03*
X108000000Y-130328427I1414227J-1414201D01*
G01*
%TO.N,Net-(J3-Pin_1)*%
X122473780Y-112026208D02*
G75*
G03*
X123059572Y-110612001I-1414180J1414208D01*
G01*
X105665773Y-128834199D02*
G75*
G03*
X105080000Y-130248427I1414227J-1414201D01*
G01*
%TO.N,Net-(J2-Pin_1)*%
X105080000Y-136752500D02*
X106000000Y-136752500D01*
X108585787Y-128914213D02*
X125914214Y-111585786D01*
X108000000Y-134752500D02*
X108000000Y-130328427D01*
X126500000Y-110171573D02*
X126500000Y-93328427D01*
X125914213Y-91914213D02*
X117085786Y-83085786D01*
X115671573Y-82500000D02*
X100000000Y-82500000D01*
%TO.N,Net-(J1-Pin_1)*%
X83000000Y-115500000D02*
G75*
G03*
X85000000Y-117500000I2000000J0D01*
G01*
X103414228Y-120085800D02*
G75*
G03*
X104000000Y-118671573I-1414228J1414200D01*
G01*
X85000000Y-113500000D02*
G75*
G03*
X83000000Y-115500000I0J-2000000D01*
G01*
X104000000Y-115500000D02*
G75*
G03*
X102000000Y-113500000I-2000000J0D01*
G01*
X98045773Y-125454199D02*
G75*
G03*
X97460000Y-126868427I1414227J-1414201D01*
G01*
X97460000Y-134212500D02*
X97460000Y-126868427D01*
X102000000Y-113500000D02*
X85000000Y-113500000D01*
X98045787Y-125454213D02*
X103414214Y-120085786D01*
X104000000Y-118671573D02*
X104000000Y-115500000D01*
X83000000Y-115500000D02*
X83000000Y-115500000D01*
X85000000Y-117500000D02*
X100000000Y-117500000D01*
%TO.N,Net-(J4-Pin_1)*%
X107086107Y-122726425D02*
X115155400Y-108750000D01*
X100000000Y-134212500D02*
X100000000Y-130737335D01*
X100585787Y-129323121D02*
X106768270Y-123140638D01*
%TO.N,Net-(J3-Pin_1)*%
X122791623Y-104476326D02*
X115155400Y-91250000D01*
X105080000Y-134212500D02*
X105080000Y-130248427D01*
X105665787Y-128834213D02*
X122473786Y-112026214D01*
X123059572Y-110612001D02*
X123059572Y-105476326D01*
%TD*%
%TA.AperFunction,Conductor*%
%TO.N,Net-(J5-Pin_1)*%
G36*
X102544022Y-136755130D02*
G01*
X102544040Y-136755147D01*
X103132950Y-137345431D01*
X103136367Y-137353709D01*
X103133104Y-137361801D01*
X102908866Y-137595216D01*
X102908855Y-137595228D01*
X102754849Y-137776496D01*
X102754834Y-137776515D01*
X102632153Y-137942372D01*
X102494184Y-138137514D01*
X102494024Y-138137736D01*
X102300919Y-138397768D01*
X102293236Y-138402366D01*
X102284550Y-138400185D01*
X102284404Y-138400074D01*
X101904745Y-138108752D01*
X101900267Y-138100997D01*
X101901353Y-138094337D01*
X101975539Y-137942372D01*
X102035300Y-137819955D01*
X102003886Y-137590193D01*
X101882768Y-137367029D01*
X101882587Y-137366680D01*
X101880159Y-137361801D01*
X101752220Y-137104748D01*
X101751173Y-137101564D01*
X101692402Y-136766206D01*
X101694349Y-136757466D01*
X101701906Y-136752663D01*
X101703914Y-136752487D01*
X102535747Y-136751711D01*
X102544022Y-136755130D01*
G37*
%TD.AperFunction*%
%TD*%
%TA.AperFunction,Conductor*%
%TO.N,Net-(J5-Pin_1)*%
G36*
X84224568Y-107173882D02*
G01*
X84443619Y-107475782D01*
X84660089Y-107645642D01*
X84886475Y-107758552D01*
X84886870Y-107758759D01*
X85141247Y-107897980D01*
X85143078Y-107899220D01*
X85435724Y-108140773D01*
X85439923Y-108148682D01*
X85437299Y-108157244D01*
X85436559Y-108158060D01*
X84848533Y-108747425D01*
X84840263Y-108750861D01*
X84840238Y-108750861D01*
X84006657Y-108750012D01*
X83998387Y-108746577D01*
X83994969Y-108738300D01*
X83994974Y-108737998D01*
X84005260Y-108408033D01*
X84005265Y-108407902D01*
X84018156Y-108158060D01*
X84018217Y-108156886D01*
X84018216Y-108156878D01*
X84018217Y-108156872D01*
X84004918Y-107943321D01*
X83936817Y-107713941D01*
X83936816Y-107713939D01*
X83936815Y-107713935D01*
X83790379Y-107425235D01*
X83789692Y-107416306D01*
X83794961Y-107409812D01*
X84209251Y-107170621D01*
X84218127Y-107169453D01*
X84224568Y-107173882D01*
G37*
%TD.AperFunction*%
%TD*%
%TA.AperFunction,Conductor*%
%TO.N,Net-(J2-Pin_1)*%
G36*
X105784165Y-135926396D02*
G01*
X106598871Y-136393179D01*
X106603863Y-136398853D01*
X106790123Y-136848529D01*
X106790123Y-136857483D01*
X106786134Y-136862512D01*
X105864840Y-137523492D01*
X105856121Y-137525531D01*
X105849754Y-137522266D01*
X105086665Y-136760457D01*
X105083231Y-136752187D01*
X105085962Y-136744664D01*
X105769382Y-135929034D01*
X105777322Y-135924894D01*
X105784165Y-135926396D01*
G37*
%TD.AperFunction*%
%TD*%
%TA.AperFunction,Conductor*%
%TO.N,Net-(J2-Pin_1)*%
G36*
X100335793Y-81719894D02*
G01*
X100336464Y-81720198D01*
X100476437Y-81788986D01*
X100658573Y-81878495D01*
X100659647Y-81879095D01*
X100891144Y-82025071D01*
X101093709Y-82142871D01*
X101339201Y-82221427D01*
X101689225Y-82249146D01*
X101697200Y-82253215D01*
X101700000Y-82260809D01*
X101700000Y-82739190D01*
X101696573Y-82747463D01*
X101689224Y-82750853D01*
X101339202Y-82778571D01*
X101093715Y-82857125D01*
X101093706Y-82857129D01*
X100891154Y-82974921D01*
X100659643Y-83120905D01*
X100658562Y-83121508D01*
X100336464Y-83279801D01*
X100327528Y-83280375D01*
X100320804Y-83274461D01*
X100320505Y-83273804D01*
X100000864Y-82504488D01*
X100000856Y-82495534D01*
X100000865Y-82495511D01*
X100320499Y-81726209D01*
X100326838Y-81719885D01*
X100335793Y-81719894D01*
G37*
%TD.AperFunction*%
%TD*%
%TA.AperFunction,Conductor*%
%TO.N,Net-(J1-Pin_1)*%
G36*
X97707463Y-132515927D02*
G01*
X97710853Y-132523276D01*
X97738571Y-132873296D01*
X97817125Y-133118783D01*
X97817129Y-133118792D01*
X97934921Y-133321343D01*
X98080905Y-133552855D01*
X98081508Y-133553936D01*
X98239801Y-133876035D01*
X98240375Y-133884971D01*
X98234461Y-133891695D01*
X98233790Y-133892000D01*
X97464489Y-134211634D01*
X97455534Y-134211643D01*
X97455511Y-134211634D01*
X96686210Y-133892000D01*
X96679885Y-133885661D01*
X96679894Y-133876706D01*
X96680198Y-133876035D01*
X96838490Y-133553936D01*
X96838499Y-133553917D01*
X96839093Y-133552855D01*
X96985071Y-133321354D01*
X97102871Y-133118790D01*
X97181427Y-132873298D01*
X97209147Y-132523276D01*
X97213216Y-132515300D01*
X97220810Y-132512500D01*
X97699190Y-132512500D01*
X97707463Y-132515927D01*
G37*
%TD.AperFunction*%
%TD*%
%TA.AperFunction,Conductor*%
%TO.N,Net-(J1-Pin_1)*%
G36*
X99660060Y-116679348D02*
G01*
X99660383Y-116680058D01*
X99999135Y-117495512D01*
X99999144Y-117504466D01*
X99999135Y-117504488D01*
X99660383Y-118319941D01*
X99654044Y-118326267D01*
X99645090Y-118326258D01*
X99644380Y-118325935D01*
X99301997Y-118156143D01*
X99300842Y-118155486D01*
X99056120Y-117997232D01*
X98842405Y-117868310D01*
X98842396Y-117868306D01*
X98647877Y-117803394D01*
X98582818Y-117781683D01*
X98525674Y-117776953D01*
X98210735Y-117750888D01*
X98202773Y-117746791D01*
X98200000Y-117739228D01*
X98200000Y-117260771D01*
X98203427Y-117252498D01*
X98210733Y-117249111D01*
X98582818Y-117218316D01*
X98842402Y-117131690D01*
X99056135Y-117002756D01*
X99300848Y-116844507D01*
X99301990Y-116843857D01*
X99644381Y-116674063D01*
X99653314Y-116673459D01*
X99660060Y-116679348D01*
G37*
%TD.AperFunction*%
%TD*%
%TA.AperFunction,Conductor*%
%TO.N,Net-(J4-Pin_1)*%
G36*
X115159313Y-108752555D02*
G01*
X115160432Y-108753676D01*
X115747359Y-109341939D01*
X115750776Y-109350216D01*
X115747340Y-109358486D01*
X115746524Y-109359226D01*
X115453878Y-109600777D01*
X115452047Y-109602017D01*
X115197670Y-109741238D01*
X115197275Y-109741445D01*
X114970890Y-109854355D01*
X114970889Y-109854356D01*
X114754419Y-110024217D01*
X114754418Y-110024217D01*
X114754417Y-110024219D01*
X114535369Y-110326116D01*
X114527737Y-110330800D01*
X114520049Y-110329377D01*
X114105763Y-110090189D01*
X114100312Y-110083085D01*
X114101179Y-110074764D01*
X114247615Y-109786063D01*
X114247615Y-109786060D01*
X114247617Y-109786058D01*
X114315718Y-109556677D01*
X114329017Y-109343126D01*
X114329016Y-109343118D01*
X114329017Y-109343111D01*
X114321155Y-109190741D01*
X114316065Y-109092100D01*
X114316059Y-109091961D01*
X114305775Y-108762050D01*
X114308942Y-108753676D01*
X114317104Y-108749993D01*
X114317411Y-108749987D01*
X115151040Y-108749138D01*
X115159313Y-108752555D01*
G37*
%TD.AperFunction*%
%TD*%
%TA.AperFunction,Conductor*%
%TO.N,Net-(J4-Pin_1)*%
G36*
X100247463Y-132515927D02*
G01*
X100250853Y-132523276D01*
X100278571Y-132873296D01*
X100357125Y-133118783D01*
X100357129Y-133118792D01*
X100474921Y-133321343D01*
X100620905Y-133552855D01*
X100621508Y-133553936D01*
X100779801Y-133876035D01*
X100780375Y-133884971D01*
X100774461Y-133891695D01*
X100773790Y-133892000D01*
X100004489Y-134211634D01*
X99995534Y-134211643D01*
X99995511Y-134211634D01*
X99226210Y-133892000D01*
X99219885Y-133885661D01*
X99219894Y-133876706D01*
X99220198Y-133876035D01*
X99378490Y-133553936D01*
X99378499Y-133553917D01*
X99379093Y-133552855D01*
X99525071Y-133321354D01*
X99642871Y-133118790D01*
X99721427Y-132873298D01*
X99749147Y-132523276D01*
X99753216Y-132515300D01*
X99760810Y-132512500D01*
X100239190Y-132512500D01*
X100247463Y-132515927D01*
G37*
%TD.AperFunction*%
%TD*%
%TA.AperFunction,Conductor*%
%TO.N,Net-(J3-Pin_1)*%
G36*
X115993343Y-91249987D02*
G01*
X116001612Y-91253422D01*
X116005030Y-91261699D01*
X116005024Y-91262052D01*
X115994740Y-91591915D01*
X115994730Y-91592153D01*
X115981780Y-91843110D01*
X115981781Y-91843132D01*
X115995079Y-92056674D01*
X115995080Y-92056678D01*
X116063183Y-92286063D01*
X116209620Y-92574764D01*
X116210307Y-92583693D01*
X116205036Y-92590189D01*
X115790750Y-92829377D01*
X115781872Y-92830546D01*
X115775430Y-92826116D01*
X115556380Y-92524217D01*
X115339909Y-92354356D01*
X115339908Y-92354355D01*
X115113522Y-92241445D01*
X115113127Y-92241238D01*
X114858750Y-92102017D01*
X114856919Y-92100777D01*
X114564275Y-91859226D01*
X114560076Y-91851317D01*
X114562700Y-91842755D01*
X114563440Y-91841939D01*
X114812659Y-91592153D01*
X115151469Y-91252572D01*
X115159733Y-91249138D01*
X115993343Y-91249987D01*
G37*
%TD.AperFunction*%
%TD*%
%TA.AperFunction,Conductor*%
%TO.N,Net-(J3-Pin_1)*%
G36*
X105327463Y-132515927D02*
G01*
X105330853Y-132523276D01*
X105358571Y-132873296D01*
X105437125Y-133118783D01*
X105437129Y-133118792D01*
X105554921Y-133321343D01*
X105700905Y-133552855D01*
X105701508Y-133553936D01*
X105859801Y-133876035D01*
X105860375Y-133884971D01*
X105854461Y-133891695D01*
X105853790Y-133892000D01*
X105084489Y-134211634D01*
X105075534Y-134211643D01*
X105075511Y-134211634D01*
X104306210Y-133892000D01*
X104299885Y-133885661D01*
X104299894Y-133876706D01*
X104300198Y-133876035D01*
X104458490Y-133553936D01*
X104458499Y-133553917D01*
X104459093Y-133552855D01*
X104605071Y-133321354D01*
X104722871Y-133118790D01*
X104801427Y-132873298D01*
X104829147Y-132523276D01*
X104833216Y-132515300D01*
X104840810Y-132512500D01*
X105319190Y-132512500D01*
X105327463Y-132515927D01*
G37*
%TD.AperFunction*%
%TD*%
M02*
